<svg viewBox="0 0 224 72" fill="none" xmlns="http://www.w3.org/2000/svg">
<path fill-rule="evenodd" clip-rule="evenodd" d="M57.2946 68.3886H67.8107L57.6458 30.3341L64.8942 17.7106H54.2613L49.784 0.905273H39.4131L0.382812 68.3886H12.1644L43.0373 15.1513L46.7508 28.9234L23.9515 68.3886H35.7331L50.4643 42.9018L57.3001 68.3886L57.2946 68.3886Z" fill="#2D2DF1"/>
<path d="M88.7058 17.3694H94.9625C97.1388 17.3694 99.0128 17.8228 100.615 18.6994C102.217 19.5759 103.456 20.8152 104.302 22.3869C105.149 23.9889 105.602 25.8327 105.602 27.9485C105.602 30.0643 105.149 31.9081 104.302 33.5101C103.456 35.1121 102.217 36.3513 100.615 37.2279C99.0128 38.1044 97.1388 38.5276 94.9625 38.5276H88.7058V17.3694ZM94.9625 36.1095C97.4713 36.1095 99.436 35.3841 100.826 33.903C102.217 32.4522 102.912 30.4573 102.912 27.9485C102.912 25.4398 102.217 23.4448 100.826 21.994C99.436 20.5432 97.5015 19.7875 94.9625 19.7875H91.3354V36.1095H94.9625ZM108.925 26.679C109.53 25.5002 110.406 24.5934 111.525 23.9285C112.613 23.2635 113.882 22.931 115.333 22.931C116.724 22.931 117.993 23.2333 119.081 23.8076C120.169 24.4121 121.016 25.2584 121.65 26.3465C122.255 27.4649 122.587 28.7646 122.648 30.2457C122.648 30.4875 122.618 30.82 122.587 31.3036H110.618V31.5152C110.648 33.0265 111.102 34.2355 112.008 35.1423C112.885 36.0491 114.033 36.5024 115.484 36.5024C116.572 36.5024 117.509 36.2304 118.295 35.6863C119.081 35.1423 119.595 34.3564 119.867 33.359H122.376C122.074 34.9307 121.318 36.2304 120.109 37.2279C118.9 38.2253 117.419 38.7089 115.666 38.7089C114.124 38.7089 112.794 38.4067 111.646 37.7417C110.497 37.0767 109.59 36.17 108.955 34.9609C108.321 33.7519 108.018 32.3917 108.018 30.82C108.018 29.2482 108.321 27.8881 108.925 26.679ZM120.079 29.2482C119.958 27.9485 119.444 26.9208 118.598 26.1954C117.751 25.47 116.663 25.1073 115.363 25.1073C114.185 25.1073 113.157 25.5002 112.28 26.2559C111.374 27.0417 110.89 28.0392 110.769 29.2482H120.079ZM123.344 23.1124H126.004L130.659 35.7166L135.283 23.1124H137.883L132.11 38.5276H129.117L123.344 23.1124ZM139.505 26.679C140.11 25.5002 140.986 24.5934 142.105 23.9285C143.193 23.2635 144.462 22.931 145.913 22.931C147.304 22.931 148.573 23.2333 149.661 23.8076C150.749 24.4121 151.596 25.2584 152.231 26.3465C152.835 27.4649 153.168 28.7646 153.228 30.2457C153.228 30.4875 153.198 30.82 153.168 31.3036H141.198V31.5152C141.228 33.0265 141.682 34.2355 142.588 35.1423C143.465 36.0491 144.614 36.5024 146.064 36.5024C147.153 36.5024 148.09 36.2304 148.875 35.6863C149.661 35.1423 150.175 34.3564 150.447 33.359H152.956C152.654 34.9307 151.898 36.2304 150.689 37.2279C149.48 38.2253 147.999 38.7089 146.246 38.7089C144.704 38.7089 143.374 38.4067 142.226 37.7417C141.077 37.0767 140.17 36.17 139.536 34.9609C138.901 33.7519 138.599 32.3917 138.599 30.82C138.599 29.2482 138.901 27.8881 139.505 26.679ZM150.659 29.2482C150.538 27.9485 150.024 26.9208 149.178 26.1954C148.331 25.47 147.243 25.1073 145.944 25.1073C144.765 25.1073 143.737 25.5002 142.86 26.2559C141.954 27.0417 141.47 28.0392 141.349 29.2482H150.659ZM156.056 17.3694H158.535V38.5276H156.056V17.3694ZM165.043 37.7115C163.895 37.0465 162.988 36.1397 162.353 34.9307C161.688 33.7519 161.386 32.3917 161.386 30.82C161.386 29.2784 161.688 27.9183 162.353 26.7092C162.988 25.5304 163.895 24.5934 165.043 23.9285C166.192 23.2635 167.522 22.931 169.033 22.931C170.514 22.931 171.844 23.2635 172.993 23.9285C174.142 24.5934 175.048 25.5304 175.713 26.7092C176.348 27.9183 176.68 29.2784 176.68 30.82C176.68 32.3917 176.348 33.7519 175.713 34.9307C175.048 36.1397 174.142 37.0465 172.993 37.7115C171.844 38.3765 170.514 38.7089 169.033 38.7089C167.522 38.7089 166.192 38.3765 165.043 37.7115ZM171.693 35.777C172.479 35.2934 173.084 34.6284 173.507 33.7519C173.93 32.9056 174.142 31.9081 174.142 30.82C174.142 29.7318 173.93 28.7646 173.507 27.8881C173.084 27.0417 172.479 26.3465 171.693 25.8629C170.907 25.3793 170.031 25.1375 169.033 25.1375C168.006 25.1375 167.129 25.3793 166.343 25.8629C165.557 26.3465 164.983 27.0417 164.56 27.8881C164.137 28.7646 163.925 29.7318 163.925 30.82C163.925 31.9081 164.137 32.9056 164.56 33.7519C164.983 34.6284 165.557 35.2934 166.343 35.777C167.129 36.2606 168.006 36.5024 169.033 36.5024C170.031 36.5024 170.907 36.2606 171.693 35.777ZM191.099 23.868C192.218 24.5028 193.094 25.4095 193.729 26.5883C194.364 27.7974 194.696 29.1878 194.696 30.82C194.696 32.3917 194.364 33.7519 193.729 34.9307C193.094 36.1397 192.218 37.0465 191.099 37.7115C189.951 38.3765 188.681 38.7089 187.291 38.7089C186.021 38.7089 184.963 38.4974 184.087 38.044C183.18 37.5906 182.485 36.9558 182.001 36.17V44.5728H179.523V23.1124H181.669L182.001 25.5909C183.271 23.8378 185.054 22.931 187.291 22.931C188.711 22.931 189.981 23.2635 191.099 23.868ZM190.736 34.9307C191.673 33.8728 192.157 32.5126 192.157 30.82C192.157 29.1575 191.673 27.7974 190.736 26.7395C189.799 25.6816 188.56 25.1375 187.049 25.1375C186.051 25.1375 185.175 25.3793 184.389 25.8629C183.603 26.3465 183.029 27.0115 182.606 27.8578C182.183 28.7042 181.971 29.6714 181.971 30.7595C181.971 31.8779 182.183 32.8753 182.606 33.7519C183.029 34.6284 183.603 35.2934 184.389 35.777C185.175 36.2606 186.051 36.5024 187.049 36.5024C188.56 36.5024 189.799 35.9886 190.736 34.9307ZM197.891 26.679C198.496 25.5002 199.372 24.5934 200.49 23.9285C201.579 23.2635 202.848 22.931 204.299 22.931C205.689 22.931 206.959 23.2333 208.047 23.8076C209.135 24.4121 209.981 25.2584 210.616 26.3465C211.221 27.4649 211.553 28.7646 211.614 30.2457C211.614 30.4875 211.583 30.82 211.553 31.3036H199.584V31.5152C199.614 33.0265 200.067 34.2355 200.974 35.1423C201.851 36.0491 202.999 36.5024 204.45 36.5024C205.538 36.5024 206.475 36.2304 207.261 35.6863C208.047 35.1423 208.561 34.3564 208.833 33.359H211.342C211.039 34.9307 210.284 36.2304 209.075 37.2279C207.866 38.2253 206.385 38.7089 204.631 38.7089C203.09 38.7089 201.76 38.4067 200.611 37.7417C199.463 37.0767 198.556 36.17 197.921 34.9609C197.287 33.7519 196.984 32.3917 196.984 30.82C196.984 29.2482 197.287 27.8881 197.891 26.679ZM209.044 29.2482C208.924 27.9485 208.41 26.9208 207.563 26.1954C206.717 25.47 205.629 25.1073 204.329 25.1073C203.15 25.1073 202.123 25.5002 201.246 26.2559C200.339 27.0417 199.856 28.0392 199.735 29.2482H209.044ZM222.27 23.1124V25.5304H221.031C219.55 25.5304 218.492 26.0443 217.857 27.0115C217.223 28.009 216.92 29.218 216.92 30.6688V38.5276H214.442V23.1124H216.588L216.92 25.4398C217.344 24.7446 217.918 24.1703 218.643 23.7471C219.338 23.3239 220.306 23.1124 221.575 23.1124H222.27ZM96.8365 47.3694C98.2269 47.3694 99.436 47.6415 100.524 48.1855C101.582 48.7296 102.398 49.4852 102.972 50.4525C103.547 51.4197 103.849 52.5683 103.849 53.868C103.849 55.1979 103.547 56.3465 102.972 57.3138C102.368 58.3112 101.552 59.0669 100.494 59.6109C99.436 60.155 98.2269 60.3968 96.8365 60.3968H91.3354V68.5276H88.7058V47.3694H96.8365ZM91.3354 57.9787H96.5947C97.9851 57.9787 99.0733 57.616 99.9196 56.8604C100.736 56.135 101.159 55.1375 101.159 53.868C101.159 52.6287 100.736 51.6313 99.9196 50.9059C99.1035 50.1804 98.0153 49.7875 96.625 49.7875H91.3354V57.9787ZM108.606 67.7115C107.457 67.0465 106.551 66.1397 105.916 64.9307C105.251 63.7519 104.949 62.3917 104.949 60.82C104.949 59.2784 105.251 57.9183 105.916 56.7092C106.551 55.5304 107.457 54.5934 108.606 53.9285C109.755 53.2635 111.085 52.931 112.596 52.931C114.077 52.931 115.407 53.2635 116.555 53.9285C117.704 54.5934 118.611 55.5304 119.276 56.7092C119.91 57.9183 120.243 59.2784 120.243 60.82C120.243 62.3917 119.91 63.7519 119.276 64.9307C118.611 66.1397 117.704 67.0465 116.555 67.7115C115.407 68.3765 114.077 68.7089 112.596 68.7089C111.085 68.7089 109.755 68.3765 108.606 67.7115ZM115.256 65.777C116.042 65.2934 116.646 64.6284 117.069 63.7519C117.492 62.9056 117.704 61.9081 117.704 60.82C117.704 59.7318 117.492 58.7646 117.069 57.8881C116.646 57.0417 116.042 56.3465 115.256 55.8629C114.47 55.3793 113.593 55.1375 112.596 55.1375C111.568 55.1375 110.692 55.3793 109.906 55.8629C109.12 56.3465 108.546 57.0417 108.122 57.8881C107.699 58.7646 107.488 59.7318 107.488 60.82C107.488 61.9081 107.699 62.9056 108.122 63.7519C108.546 64.6284 109.12 65.2934 109.906 65.777C110.692 66.2606 111.568 66.5024 112.596 66.5024C113.593 66.5024 114.47 66.2606 115.256 65.777ZM130.914 53.1124V55.5304H129.674C128.193 55.5304 127.135 56.0443 126.501 57.0115C125.866 58.009 125.564 59.218 125.564 60.6688V68.5276H123.085V53.1124H125.231L125.564 55.4398C125.987 54.7446 126.561 54.1703 127.287 53.7471C127.982 53.3239 128.949 53.1124 130.218 53.1124H130.914ZM133.18 48.79H135.659V53.1124H139.558V55.3793H135.659V64.4773C135.659 65.1423 135.78 65.5957 136.021 65.8677C136.263 66.1397 136.717 66.2606 137.351 66.2606H140.041V68.5276H137.2C135.749 68.5276 134.691 68.2253 134.087 67.5604C133.482 66.9256 133.18 65.8979 133.18 64.5075V48.79ZM155.981 66.2606V68.5276H154.621C153.623 68.5276 152.928 68.3462 152.505 67.9231C152.082 67.5301 151.84 66.9256 151.84 66.1397C150.631 67.8626 148.908 68.7089 146.671 68.7089C144.948 68.7089 143.558 68.316 142.53 67.4999C141.503 66.714 140.989 65.5957 140.989 64.2053C140.989 62.6638 141.503 61.4849 142.561 60.6386C143.618 59.8225 145.16 59.3994 147.185 59.3994H151.719V58.3414C151.719 57.344 151.356 56.5581 150.691 55.9838C150.026 55.4398 149.089 55.1375 147.88 55.1375C146.792 55.1375 145.916 55.3793 145.22 55.8629C144.525 56.3465 144.102 56.9511 143.951 57.7369H141.472C141.654 56.2256 142.319 55.0468 143.467 54.2005C144.616 53.3542 146.127 52.931 148.001 52.931C149.966 52.931 151.477 53.4146 152.565 54.3818C153.654 55.3491 154.198 56.7092 154.198 58.4926V65.1423C154.198 65.8979 154.53 66.2606 155.225 66.2606H155.981ZM151.719 61.4849H146.943C144.646 61.4849 143.498 62.3615 143.498 64.0541C143.498 64.84 143.8 65.4445 144.404 65.8979C145.009 66.3815 145.825 66.5931 146.853 66.5931C148.364 66.5931 149.543 66.2002 150.419 65.4143C151.266 64.6284 151.719 63.5705 151.719 62.2406V61.4849ZM157.886 47.3694H160.365V68.5276H157.886V47.3694Z" fill="#2D2DF1"/>
</svg>

