<svg viewBox="0 0 367 117" fill="none" xmlns="http://www.w3.org/2000/svg">
<path fill-rule="evenodd" clip-rule="evenodd" d="M93.9066 110.954H111.188L94.4839 48.4184L106.395 27.6741H88.9221L81.5644 0.0576172H64.5218L0.382812 110.954H19.7436L70.4775 23.4684L76.5799 46.1002L39.1136 110.954H58.4744L82.6823 69.0711L93.9157 110.954L93.9066 110.954Z" fill="white"/>
<path d="M145.528 27.0342H155.81C159.386 27.0342 162.466 27.7793 165.098 29.2197C167.731 30.6602 169.767 32.6967 171.158 35.2796C172.549 37.9121 173.294 40.942 173.294 44.419C173.294 47.8959 172.549 50.9258 171.158 53.5584C169.767 56.1909 167.731 58.2274 165.098 59.6679C162.466 61.1083 159.386 61.8037 155.81 61.8037H145.528V27.0342ZM155.81 57.8301C159.932 57.8301 163.161 56.638 165.446 54.2041C167.731 51.8199 168.873 48.5416 168.873 44.419C168.873 40.2963 167.731 37.018 165.446 34.6339C163.161 32.2497 159.982 31.0079 155.81 31.0079H149.849V57.8301H155.81ZM178.755 42.3328C179.748 40.3956 181.189 38.9055 183.027 37.8128C184.815 36.72 186.901 36.1736 189.285 36.1736C191.57 36.1736 193.656 36.6703 195.444 37.6141C197.232 38.6075 198.623 39.9983 199.666 41.7864C200.66 43.6242 201.206 45.7601 201.305 48.1939C201.305 48.5913 201.256 49.1377 201.206 49.9324H181.537V50.2801C181.586 52.7636 182.331 54.7505 183.821 56.2406C185.262 57.7307 187.149 58.4758 189.533 58.4758C191.322 58.4758 192.861 58.0287 194.153 57.1347C195.444 56.2406 196.289 54.9492 196.736 53.31H200.858C200.362 55.8929 199.12 58.0287 197.133 59.6679C195.146 61.307 192.712 62.1017 189.832 62.1017C187.298 62.1017 185.113 61.605 183.225 60.5123C181.338 59.4195 179.848 57.9294 178.805 55.9426C177.762 53.9557 177.265 51.7206 177.265 49.1377C177.265 46.5548 177.762 44.3196 178.755 42.3328ZM197.083 46.5548C196.885 44.419 196.04 42.7302 194.65 41.5381C193.259 40.346 191.471 39.7499 189.335 39.7499C187.398 39.7499 185.709 40.3956 184.268 41.6374C182.778 42.9289 181.984 44.568 181.785 46.5548H197.083ZM202.45 36.4717H206.821L214.47 57.1843L222.07 36.4717H226.341L216.854 61.8037H211.937L202.45 36.4717ZM229.008 42.3328C230.001 40.3956 231.442 38.9055 233.279 37.8128C235.068 36.72 237.154 36.1736 239.538 36.1736C241.823 36.1736 243.909 36.6703 245.697 37.6141C247.485 38.6075 248.876 39.9983 249.919 41.7864C250.912 43.6242 251.459 45.7601 251.558 48.1939C251.558 48.5913 251.509 49.1377 251.459 49.9324H231.789V50.2801C231.839 52.7636 232.584 54.7505 234.074 56.2406C235.515 57.7307 237.402 58.4758 239.786 58.4758C241.574 58.4758 243.114 58.0287 244.406 57.1347C245.697 56.2406 246.541 54.9492 246.988 53.31H251.111C250.614 55.8929 249.373 58.0287 247.386 59.6679C245.399 61.307 242.965 62.1017 240.084 62.1017C237.551 62.1017 235.366 61.605 233.478 60.5123C231.591 59.4195 230.1 57.9294 229.057 55.9426C228.014 53.9557 227.518 51.7206 227.518 49.1377C227.518 46.5548 228.014 44.3196 229.008 42.3328ZM247.336 46.5548C247.138 44.419 246.293 42.7302 244.902 41.5381C243.512 40.346 241.723 39.7499 239.588 39.7499C237.65 39.7499 235.962 40.3956 234.521 41.6374C233.031 42.9289 232.236 44.568 232.038 46.5548H247.336ZM256.206 27.0342H260.279V61.8037H256.206V27.0342ZM270.975 60.4626C269.087 59.3698 267.597 57.8797 266.554 55.8929C265.461 53.9557 264.965 51.7206 264.965 49.1377C264.965 46.6045 265.461 44.3693 266.554 42.3825C267.597 40.4453 269.087 38.9055 270.975 37.8128C272.862 36.72 275.048 36.1736 277.531 36.1736C279.965 36.1736 282.151 36.72 284.038 37.8128C285.926 38.9055 287.416 40.4453 288.509 42.3825C289.552 44.3693 290.098 46.6045 290.098 49.1377C290.098 51.7206 289.552 53.9557 288.509 55.8929C287.416 57.8797 285.926 59.3698 284.038 60.4626C282.151 61.5554 279.965 62.1017 277.531 62.1017C275.048 62.1017 272.862 61.5554 270.975 60.4626ZM281.902 57.2837C283.194 56.4889 284.187 55.3962 284.883 53.9557C285.578 52.565 285.926 50.9258 285.926 49.1377C285.926 47.3495 285.578 45.7601 284.883 44.3196C284.187 42.9289 283.194 41.7864 281.902 40.9917C280.611 40.197 279.17 39.7996 277.531 39.7996C275.842 39.7996 274.402 40.197 273.111 40.9917C271.819 41.7864 270.875 42.9289 270.18 44.3196C269.485 45.7601 269.137 47.3495 269.137 49.1377C269.137 50.9258 269.485 52.565 270.18 53.9557C270.875 55.3962 271.819 56.4889 273.111 57.2837C274.402 58.0784 275.842 58.4758 277.531 58.4758C279.17 58.4758 280.611 58.0784 281.902 57.2837ZM313.792 37.7134C315.63 38.7565 317.071 40.2466 318.114 42.1838C319.157 44.1706 319.703 46.4555 319.703 49.1377C319.703 51.7206 319.157 53.9557 318.114 55.8929C317.071 57.8797 315.63 59.3698 313.792 60.4626C311.905 61.5554 309.819 62.1017 307.534 62.1017C305.448 62.1017 303.709 61.754 302.269 61.009C300.779 60.2639 299.636 59.2208 298.842 57.9294V71.7378H294.769V36.4717H298.295L298.842 40.5447C300.928 37.6638 303.858 36.1736 307.534 36.1736C309.868 36.1736 311.955 36.72 313.792 37.7134ZM313.196 55.8929C314.736 54.1544 315.531 51.9192 315.531 49.1377C315.531 46.4058 314.736 44.1706 313.196 42.4321C311.657 40.6937 309.62 39.7996 307.137 39.7996C305.497 39.7996 304.057 40.197 302.766 40.9917C301.474 41.7864 300.53 42.8792 299.835 44.27C299.14 45.6607 298.792 47.2502 298.792 49.0383C298.792 50.8762 299.14 52.5153 299.835 53.9557C300.53 55.3962 301.474 56.4889 302.766 57.2837C304.057 58.0784 305.497 58.4758 307.137 58.4758C309.62 58.4758 311.657 57.6314 313.196 55.8929ZM324.954 42.3328C325.947 40.3956 327.387 38.9055 329.225 37.8128C331.013 36.72 333.1 36.1736 335.484 36.1736C337.769 36.1736 339.855 36.6703 341.643 37.6141C343.431 38.6075 344.822 39.9983 345.865 41.7864C346.858 43.6242 347.405 45.7601 347.504 48.1939C347.504 48.5913 347.454 49.1377 347.405 49.9324H327.735V50.2801C327.785 52.7636 328.53 54.7505 330.02 56.2406C331.46 57.7307 333.348 58.4758 335.732 58.4758C337.52 58.4758 339.06 58.0287 340.352 57.1347C341.643 56.2406 342.487 54.9492 342.934 53.31H347.057C346.56 55.8929 345.319 58.0287 343.332 59.6679C341.345 61.307 338.911 62.1017 336.03 62.1017C333.497 62.1017 331.311 61.605 329.424 60.5123C327.536 59.4195 326.046 57.9294 325.003 55.9426C323.96 53.9557 323.463 51.7206 323.463 49.1377C323.463 46.5548 323.96 44.3196 324.954 42.3328ZM343.282 46.5548C343.083 44.419 342.239 42.7302 340.848 41.5381C339.457 40.346 337.669 39.7499 335.533 39.7499C333.596 39.7499 331.907 40.3956 330.467 41.6374C328.977 42.9289 328.182 44.568 327.984 46.5548H343.282ZM365.016 36.4717V40.4453H362.98C360.546 40.4453 358.808 41.2897 357.765 42.8792C356.721 44.5183 356.225 46.5051 356.225 48.8893V61.8037H352.152V36.4717H355.678L356.225 40.2963C356.92 39.1539 357.864 38.2101 359.056 37.5148C360.198 36.8194 361.788 36.4717 363.874 36.4717H365.016ZM158.889 77.0342C161.174 77.0342 163.161 77.4813 164.949 78.3753C166.688 79.2694 168.029 80.5112 168.973 82.1006C169.916 83.6901 170.413 85.5776 170.413 87.7134C170.413 89.8989 169.916 91.7864 168.973 93.3759C167.979 95.015 166.638 96.2568 164.9 97.1509C163.161 98.0449 161.174 98.4423 158.889 98.4423H149.849V111.804H145.528V77.0342H158.889ZM149.849 94.4686H158.492C160.777 94.4686 162.565 93.8726 163.956 92.6308C165.297 91.4387 165.992 89.7996 165.992 87.7134C165.992 85.6769 165.297 84.0378 163.956 82.8457C162.615 81.6536 160.827 81.0079 158.542 81.0079H149.849V94.4686ZM178.23 110.463C176.343 109.37 174.853 107.88 173.81 105.893C172.717 103.956 172.22 101.721 172.22 99.1377C172.22 96.6045 172.717 94.3693 173.81 92.3825C174.853 90.4453 176.343 88.9055 178.23 87.8128C180.118 86.72 182.303 86.1736 184.787 86.1736C187.221 86.1736 189.406 86.72 191.294 87.8128C193.181 88.9055 194.671 90.4453 195.764 92.3825C196.807 94.3693 197.354 96.6045 197.354 99.1377C197.354 101.721 196.807 103.956 195.764 105.893C194.671 107.88 193.181 109.37 191.294 110.463C189.406 111.555 187.221 112.102 184.787 112.102C182.303 112.102 180.118 111.555 178.23 110.463ZM189.158 107.284C190.449 106.489 191.443 105.396 192.138 103.956C192.833 102.565 193.181 100.926 193.181 99.1377C193.181 97.3495 192.833 95.7601 192.138 94.3196C191.443 92.9289 190.449 91.7864 189.158 90.9917C187.866 90.197 186.426 89.7996 184.787 89.7996C183.098 89.7996 181.658 90.197 180.366 90.9917C179.075 91.7864 178.131 92.9289 177.436 94.3196C176.74 95.7601 176.393 97.3495 176.393 99.1377C176.393 100.926 176.74 102.565 177.436 103.956C178.131 105.396 179.075 106.489 180.366 107.284C181.658 108.078 183.098 108.476 184.787 108.476C186.426 108.476 187.866 108.078 189.158 107.284ZM214.889 86.4717V90.4453H212.852C210.418 90.4453 208.68 91.2897 207.637 92.8792C206.594 94.5183 206.097 96.5051 206.097 98.8893V111.804H202.024V86.4717H205.551L206.097 90.2963C206.793 89.1539 207.736 88.2101 208.928 87.5148C210.071 86.8194 211.66 86.4717 213.746 86.4717H214.889ZM218.613 79.3688H222.686V86.4717H229.094V90.197H222.686V105.148C222.686 106.241 222.885 106.986 223.282 107.433C223.68 107.88 224.425 108.078 225.468 108.078H229.889V111.804H225.22C222.835 111.804 221.097 111.307 220.103 110.214C219.11 109.171 218.613 107.482 218.613 105.198V79.3688ZM256.082 108.078V111.804H253.847C252.208 111.804 251.065 111.506 250.37 110.81C249.675 110.165 249.277 109.171 249.277 107.88C247.29 110.711 244.459 112.102 240.784 112.102C237.952 112.102 235.667 111.456 233.979 110.115C232.29 108.823 231.445 106.986 231.445 104.701C231.445 102.168 232.29 100.23 234.028 98.8397C235.767 97.4986 238.3 96.8032 241.628 96.8032H249.079V95.0647C249.079 93.4256 248.483 92.1341 247.39 91.1904C246.297 90.2963 244.757 89.7996 242.77 89.7996C240.982 89.7996 239.542 90.197 238.399 90.9917C237.257 91.7864 236.562 92.7798 236.313 94.0713H232.24C232.538 91.5877 233.631 89.6506 235.518 88.2598C237.406 86.869 239.889 86.1736 242.969 86.1736C246.198 86.1736 248.681 86.9684 250.469 88.5578C252.257 90.1473 253.152 92.3825 253.152 95.313V106.241C253.152 107.482 253.698 108.078 254.84 108.078H256.082ZM249.079 100.23H241.231C237.456 100.23 235.568 101.671 235.568 104.452C235.568 105.744 236.065 106.737 237.058 107.482C238.052 108.277 239.393 108.625 241.082 108.625C243.565 108.625 245.502 107.979 246.943 106.688C248.333 105.396 249.079 103.658 249.079 101.472V100.23ZM259.213 77.0342H263.286V111.804H259.213V77.0342Z" fill="white"/>
</svg>
