<svg viewBox="0 0 367 117" fill="none" xmlns="http://www.w3.org/2000/svg">
<path fill-rule="evenodd" clip-rule="evenodd" d="M93.9125 110.952H111.194L94.4898 48.4169L106.401 27.6726H88.9279L81.5703 0.0561523H64.5277L0.388672 110.952H19.7495L70.4834 23.4669L76.5858 46.0988L39.1195 110.952H58.4803L82.6881 69.0696L93.9216 110.952L93.9125 110.952Z" fill="#001324"/>
<path d="M145.532 27.0337H155.814C159.39 27.0337 162.47 27.7788 165.102 29.2193C167.735 30.6597 169.771 32.6962 171.162 35.2791C172.553 37.9116 173.298 40.9415 173.298 44.4185C173.298 47.8954 172.553 50.9253 171.162 53.5579C169.771 56.1904 167.735 58.2269 165.102 59.6674C162.47 61.1078 159.39 61.8032 155.814 61.8032H145.532V27.0337ZM155.814 57.8296C159.936 57.8296 163.165 56.6375 165.45 54.2036C167.735 51.8194 168.877 48.5412 168.877 44.4185C168.877 40.2958 167.735 37.0176 165.45 34.6334C163.165 32.2492 159.986 31.0074 155.814 31.0074H149.853V57.8296H155.814ZM178.759 42.3323C179.752 40.3952 181.193 38.905 183.031 37.8123C184.819 36.7195 186.905 36.1732 189.289 36.1732C191.574 36.1732 193.66 36.6699 195.448 37.6136C197.236 38.607 198.627 39.9978 199.67 41.7859C200.664 43.6238 201.21 45.7596 201.309 48.1935C201.309 48.5908 201.26 49.1372 201.21 49.9319H181.54V50.2796C181.59 52.7632 182.335 54.75 183.825 56.2401C185.266 57.7302 187.153 58.4753 189.537 58.4753C191.326 58.4753 192.865 58.0283 194.157 57.1342C195.448 56.2401 196.293 54.9487 196.74 53.3095H200.862C200.366 55.8924 199.124 58.0283 197.137 59.6674C195.15 61.3065 192.716 62.1012 189.835 62.1012C187.302 62.1012 185.117 61.6045 183.229 60.5118C181.342 59.419 179.852 57.9289 178.809 55.9421C177.765 53.9553 177.269 51.7201 177.269 49.1372C177.269 46.5543 177.765 44.3191 178.759 42.3323ZM197.087 46.5543C196.889 44.4185 196.044 42.7297 194.653 41.5376C193.263 40.3455 191.475 39.7494 189.339 39.7494C187.402 39.7494 185.713 40.3952 184.272 41.6369C182.782 42.9284 181.987 44.5675 181.789 46.5543H197.087ZM202.454 36.4712H206.825L214.474 57.1838L222.074 36.4712H226.345L216.858 61.8032H211.941L202.454 36.4712ZM229.012 42.3323C230.005 40.3952 231.445 38.905 233.283 37.8123C235.071 36.7195 237.158 36.1732 239.542 36.1732C241.827 36.1732 243.913 36.6699 245.701 37.6136C247.489 38.607 248.88 39.9978 249.923 41.7859C250.916 43.6238 251.463 45.7596 251.562 48.1935C251.562 48.5908 251.512 49.1372 251.463 49.9319H231.793V50.2796C231.843 52.7632 232.588 54.75 234.078 56.2401C235.518 57.7302 237.406 58.4753 239.79 58.4753C241.578 58.4753 243.118 58.0283 244.41 57.1342C245.701 56.2401 246.545 54.9487 246.992 53.3095H251.115C250.618 55.8924 249.377 58.0283 247.39 59.6674C245.403 61.3065 242.969 62.1012 240.088 62.1012C237.555 62.1012 235.369 61.6045 233.482 60.5118C231.594 59.419 230.104 57.9289 229.061 55.9421C228.018 53.9553 227.522 51.7201 227.522 49.1372C227.522 46.5543 228.018 44.3191 229.012 42.3323ZM247.34 46.5543C247.141 44.4185 246.297 42.7297 244.906 41.5376C243.515 40.3455 241.727 39.7494 239.591 39.7494C237.654 39.7494 235.966 40.3952 234.525 41.6369C233.035 42.9284 232.24 44.5675 232.042 46.5543H247.34ZM256.21 27.0337H260.283V61.8032H256.21V27.0337ZM270.979 60.4621C269.091 59.3694 267.601 57.8792 266.558 55.8924C265.465 53.9553 264.969 51.7201 264.969 49.1372C264.969 46.604 265.465 44.3688 266.558 42.382C267.601 40.4448 269.091 38.905 270.979 37.8123C272.866 36.7195 275.052 36.1732 277.535 36.1732C279.969 36.1732 282.155 36.7195 284.042 37.8123C285.93 38.905 287.42 40.4448 288.512 42.382C289.556 44.3688 290.102 46.604 290.102 49.1372C290.102 51.7201 289.556 53.9553 288.512 55.8924C287.42 57.8792 285.93 59.3694 284.042 60.4621C282.155 61.5549 279.969 62.1012 277.535 62.1012C275.052 62.1012 272.866 61.5549 270.979 60.4621ZM281.906 57.2832C283.198 56.4885 284.191 55.3957 284.886 53.9553C285.582 52.5645 285.93 50.9253 285.93 49.1372C285.93 47.3491 285.582 45.7596 284.886 44.3191C284.191 42.9284 283.198 41.7859 281.906 40.9912C280.615 40.1965 279.174 39.7991 277.535 39.7991C275.846 39.7991 274.406 40.1965 273.115 40.9912C271.823 41.7859 270.879 42.9284 270.184 44.3191C269.489 45.7596 269.141 47.3491 269.141 49.1372C269.141 50.9253 269.489 52.5645 270.184 53.9553C270.879 55.3957 271.823 56.4885 273.115 57.2832C274.406 58.0779 275.846 58.4753 277.535 58.4753C279.174 58.4753 280.615 58.0779 281.906 57.2832ZM313.796 37.7129C315.634 38.756 317.075 40.2461 318.118 42.1833C319.161 44.1701 319.707 46.455 319.707 49.1372C319.707 51.7201 319.161 53.9553 318.118 55.8924C317.075 57.8792 315.634 59.3694 313.796 60.4621C311.909 61.5549 309.823 62.1012 307.538 62.1012C305.452 62.1012 303.713 61.7536 302.273 61.0085C300.783 60.2634 299.64 59.2203 298.845 57.9289V71.7374H294.772V36.4712H298.299L298.845 40.5442C300.932 37.6633 303.862 36.1732 307.538 36.1732C309.872 36.1732 311.959 36.7195 313.796 37.7129ZM313.2 55.8924C314.74 54.1539 315.535 51.9188 315.535 49.1372C315.535 46.4053 314.74 44.1701 313.2 42.4317C311.661 40.6932 309.624 39.7991 307.14 39.7991C305.501 39.7991 304.061 40.1965 302.769 40.9912C301.478 41.7859 300.534 42.8787 299.839 44.2695C299.144 45.6603 298.796 47.2497 298.796 49.0379C298.796 50.8757 299.144 52.5148 299.839 53.9553C300.534 55.3957 301.478 56.4885 302.769 57.2832C304.061 58.0779 305.501 58.4753 307.14 58.4753C309.624 58.4753 311.661 57.6309 313.2 55.8924ZM324.958 42.3323C325.951 40.3952 327.391 38.905 329.229 37.8123C331.017 36.7195 333.104 36.1732 335.488 36.1732C337.773 36.1732 339.859 36.6699 341.647 37.6136C343.435 38.607 344.826 39.9978 345.869 41.7859C346.862 43.6238 347.409 45.7596 347.508 48.1935C347.508 48.5908 347.458 49.1372 347.409 49.9319H327.739V50.2796C327.789 52.7632 328.534 54.75 330.024 56.2401C331.464 57.7302 333.352 58.4753 335.736 58.4753C337.524 58.4753 339.064 58.0283 340.355 57.1342C341.647 56.2401 342.491 54.9487 342.938 53.3095H347.061C346.564 55.8924 345.323 58.0283 343.336 59.6674C341.349 61.3065 338.915 62.1012 336.034 62.1012C333.501 62.1012 331.315 61.6045 329.428 60.5118C327.54 59.419 326.05 57.9289 325.007 55.9421C323.964 53.9553 323.467 51.7201 323.467 49.1372C323.467 46.5543 323.964 44.3191 324.958 42.3323ZM343.286 46.5543C343.087 44.4185 342.243 42.7297 340.852 41.5376C339.461 40.3455 337.673 39.7494 335.537 39.7494C333.6 39.7494 331.911 40.3952 330.471 41.6369C328.981 42.9284 328.186 44.5675 327.987 46.5543H343.286ZM365.02 36.4712V40.4448H362.984C360.55 40.4448 358.812 41.2892 357.769 42.8787C356.725 44.5178 356.229 46.5047 356.229 48.8888V61.8032H352.156V36.4712H355.682L356.229 40.2958C356.924 39.1534 357.868 38.2096 359.06 37.5143C360.202 36.8189 361.792 36.4712 363.878 36.4712H365.02ZM158.893 77.0337C161.178 77.0337 163.165 77.4808 164.953 78.3749C166.692 79.2689 168.033 80.5107 168.976 82.1002C169.92 83.6896 170.417 85.5771 170.417 87.7129C170.417 89.8985 169.92 91.7859 168.976 93.3754C167.983 95.0145 166.642 96.2563 164.903 97.1504C163.165 98.0444 161.178 98.4418 158.893 98.4418H149.853V111.803H145.532V77.0337H158.893ZM149.853 94.4682H158.496C160.781 94.4682 162.569 93.8721 163.96 92.6303C165.301 91.4382 165.996 89.7991 165.996 87.7129C165.996 85.6764 165.301 84.0373 163.96 82.8452C162.619 81.6531 160.83 81.0074 158.546 81.0074H149.853V94.4682ZM178.234 110.462C176.347 109.369 174.857 107.879 173.814 105.892C172.721 103.955 172.224 101.72 172.224 99.1372C172.224 96.604 172.721 94.3688 173.814 92.382C174.857 90.4448 176.347 88.905 178.234 87.8123C180.122 86.7195 182.307 86.1732 184.791 86.1732C187.225 86.1732 189.41 86.7195 191.298 87.8123C193.185 88.905 194.675 90.4448 195.768 92.382C196.811 94.3688 197.357 96.604 197.357 99.1372C197.357 101.72 196.811 103.955 195.768 105.892C194.675 107.879 193.185 109.369 191.298 110.462C189.41 111.555 187.225 112.101 184.791 112.101C182.307 112.101 180.122 111.555 178.234 110.462ZM189.162 107.283C190.453 106.488 191.447 105.396 192.142 103.955C192.837 102.564 193.185 100.925 193.185 99.1372C193.185 97.3491 192.837 95.7596 192.142 94.3191C191.447 92.9284 190.453 91.7859 189.162 90.9912C187.87 90.1965 186.43 89.7991 184.791 89.7991C183.102 89.7991 181.662 90.1965 180.37 90.9912C179.079 91.7859 178.135 92.9284 177.439 94.3191C176.744 95.7596 176.396 97.3491 176.396 99.1372C176.396 100.925 176.744 102.564 177.439 103.955C178.135 105.396 179.079 106.488 180.37 107.283C181.662 108.078 183.102 108.475 184.791 108.475C186.43 108.475 187.87 108.078 189.162 107.283ZM214.893 86.4712V90.4448H212.856C210.422 90.4448 208.684 91.2892 207.641 92.8787C206.598 94.5178 206.101 96.5047 206.101 98.8888V111.803H202.028V86.4712H205.555L206.101 90.2958C206.796 89.1534 207.74 88.2096 208.932 87.5143C210.075 86.8189 211.664 86.4712 213.75 86.4712H214.893ZM218.617 79.3683H222.69V86.4712H229.098V90.1965H222.69V105.147C222.69 106.24 222.889 106.985 223.286 107.432C223.684 107.879 224.429 108.078 225.472 108.078H229.893V111.803H225.223C222.839 111.803 221.101 111.307 220.107 110.214C219.114 109.171 218.617 107.482 218.617 105.197V79.3683ZM256.086 108.078V111.803H253.851C252.212 111.803 251.069 111.505 250.374 110.81C249.679 110.164 249.281 109.171 249.281 107.879C247.294 110.71 244.463 112.101 240.787 112.101C237.956 112.101 235.671 111.456 233.983 110.114C232.294 108.823 231.449 106.985 231.449 104.7C231.449 102.167 232.294 100.23 234.032 98.8392C235.771 97.4981 238.304 96.8027 241.632 96.8027H249.082V95.0642C249.082 93.4251 248.486 92.1336 247.394 91.1899C246.301 90.2958 244.761 89.7991 242.774 89.7991C240.986 89.7991 239.546 90.1965 238.403 90.9912C237.261 91.7859 236.565 92.7794 236.317 94.0708H232.244C232.542 91.5873 233.635 89.6501 235.522 88.2593C237.41 86.8685 239.893 86.1732 242.973 86.1732C246.202 86.1732 248.685 86.9679 250.473 88.5573C252.261 90.1468 253.155 92.382 253.155 95.3126V106.24C253.155 107.482 253.702 108.078 254.844 108.078H256.086ZM249.082 100.23H241.234C237.46 100.23 235.572 101.67 235.572 104.452C235.572 105.743 236.069 106.737 237.062 107.482C238.056 108.277 239.397 108.624 241.085 108.624C243.569 108.624 245.506 107.979 246.947 106.687C248.337 105.396 249.082 103.657 249.082 101.472V100.23ZM259.217 77.0337H263.29V111.803H259.217V77.0337Z" fill="#001324"/>
</svg>
