<svg width="3134" height="920" viewBox="0 0 3134 920" fill="none" xmlns="http://www.w3.org/2000/svg">
<path fill-rule="evenodd" clip-rule="evenodd" d="M610.448 746.271H723.246L614.216 338.09L691.964 202.688H577.913L529.889 22.4297H418.648L0 746.271H126.372L457.522 175.236L497.354 322.959L252.803 746.271H379.175L537.185 472.894L610.508 746.271H610.448Z" fill="white"/>
<path d="M947.128 200.053H1014.24C1037.58 200.053 1057.68 204.916 1074.87 214.318C1092.05 223.72 1105.34 237.013 1114.42 253.872C1123.5 271.055 1128.36 290.832 1128.36 313.526C1128.36 336.221 1123.5 355.998 1114.42 373.181C1105.34 390.364 1092.05 403.657 1074.87 413.059C1057.68 422.461 1037.58 427 1014.24 427H947.128V200.053ZM1014.24 401.063C1041.15 401.063 1062.22 393.282 1077.14 377.396C1092.05 361.834 1099.51 340.436 1099.51 313.526C1099.51 286.617 1092.05 265.219 1077.14 249.657C1062.22 234.095 1041.47 225.99 1014.24 225.99H975.334V401.063H1014.24ZM1164.01 299.91C1170.49 287.265 1179.89 277.539 1191.89 270.406C1203.56 263.274 1217.18 259.707 1232.74 259.707C1247.65 259.707 1261.27 262.95 1272.94 269.11C1284.61 275.594 1293.69 284.672 1300.5 296.343C1306.98 308.339 1310.55 322.28 1311.2 338.166C1311.2 340.76 1310.87 344.326 1310.55 349.514H1182.16V351.783C1182.49 367.994 1187.35 380.962 1197.08 390.688C1206.48 400.415 1218.8 405.278 1234.36 405.278C1246.03 405.278 1256.08 402.36 1264.51 396.524C1272.94 390.688 1278.45 382.259 1281.37 371.56H1308.28C1305.04 388.419 1296.93 402.36 1283.96 413.059C1271 423.758 1255.11 428.945 1236.31 428.945C1219.77 428.945 1205.51 425.703 1193.19 418.571C1180.87 411.438 1171.14 401.712 1164.33 388.743C1157.52 375.775 1154.28 361.185 1154.28 344.326C1154.28 327.467 1157.52 312.878 1164.01 299.91ZM1283.64 327.467C1282.34 313.526 1276.83 302.503 1267.75 294.722C1258.68 286.941 1247 283.051 1233.06 283.051C1220.42 283.051 1209.4 287.265 1199.99 295.371C1190.27 303.8 1185.08 314.499 1183.78 327.467H1283.64ZM1318.67 261.653H1347.2L1397.13 396.848L1446.73 261.653H1474.61L1412.69 427H1380.59L1318.67 261.653ZM1492.02 299.91C1498.5 287.265 1507.9 277.539 1519.9 270.406C1531.57 263.274 1545.19 259.707 1560.75 259.707C1575.66 259.707 1589.28 262.95 1600.95 269.11C1612.62 275.594 1621.7 284.672 1628.51 296.343C1634.99 308.339 1638.56 322.28 1639.21 338.166C1639.21 340.76 1638.88 344.326 1638.56 349.514H1510.17V351.783C1510.5 367.994 1515.36 380.962 1525.09 390.688C1534.49 400.415 1546.81 405.278 1562.37 405.278C1574.04 405.278 1584.09 402.36 1592.52 396.524C1600.95 390.688 1606.46 382.259 1609.38 371.56H1636.29C1633.05 388.419 1624.94 402.36 1611.97 413.059C1599.01 423.758 1583.12 428.945 1564.32 428.945C1547.78 428.945 1533.52 425.703 1521.2 418.571C1508.88 411.438 1499.15 401.712 1492.34 388.743C1485.53 375.775 1482.29 361.185 1482.29 344.326C1482.29 327.467 1485.53 312.878 1492.02 299.91ZM1611.65 327.467C1610.35 313.526 1604.84 302.503 1595.76 294.722C1586.69 286.941 1575.01 283.051 1561.07 283.051C1548.43 283.051 1537.41 287.265 1528 295.371C1518.28 303.8 1513.09 314.499 1511.79 327.467H1611.65ZM1669.54 200.053H1696.13V427H1669.54V200.053ZM1765.94 418.246C1753.62 411.114 1743.9 401.387 1737.09 388.419C1729.96 375.775 1726.71 361.185 1726.71 344.326C1726.71 327.792 1729.96 313.202 1737.09 300.234C1743.9 287.59 1753.62 277.539 1765.94 270.406C1778.26 263.274 1792.53 259.707 1808.74 259.707C1824.63 259.707 1838.89 263.274 1851.21 270.406C1863.53 277.539 1873.26 287.59 1880.39 300.234C1887.2 313.202 1890.76 327.792 1890.76 344.326C1890.76 361.185 1887.2 375.775 1880.39 388.419C1873.26 401.387 1863.53 411.114 1851.21 418.246C1838.89 425.379 1824.63 428.945 1808.74 428.945C1792.53 428.945 1778.26 425.379 1765.94 418.246ZM1837.27 397.497C1845.7 392.309 1852.18 385.177 1856.72 375.775C1861.26 366.697 1863.53 355.998 1863.53 344.326C1863.53 332.655 1861.26 322.28 1856.72 312.878C1852.18 303.8 1845.7 296.343 1837.27 291.156C1828.84 285.969 1819.44 283.375 1808.74 283.375C1797.72 283.375 1788.31 285.969 1779.88 291.156C1771.46 296.343 1765.3 303.8 1760.76 312.878C1756.22 322.28 1753.95 332.655 1753.95 344.326C1753.95 355.998 1756.22 366.697 1760.76 375.775C1765.3 385.177 1771.46 392.309 1779.88 397.497C1788.31 402.684 1797.72 405.278 1808.74 405.278C1819.44 405.278 1828.84 402.684 1837.27 397.497ZM2045.42 269.758C2057.42 276.566 2066.82 286.293 2073.63 298.937C2080.44 311.905 2084 326.819 2084 344.326C2084 361.185 2080.44 375.775 2073.63 388.419C2066.82 401.387 2057.42 411.114 2045.42 418.246C2033.1 425.379 2019.49 428.945 2004.57 428.945C1990.96 428.945 1979.61 426.676 1970.21 421.813C1960.48 416.949 1953.02 410.141 1947.84 401.712V491.842H1921.25V261.653H1944.27L1947.84 288.238C1961.45 269.434 1980.58 259.707 2004.57 259.707C2019.81 259.707 2033.43 263.274 2045.42 269.758ZM2041.53 388.419C2051.58 377.072 2056.77 362.482 2056.77 344.326C2056.77 326.495 2051.58 311.905 2041.53 300.558C2031.48 289.211 2018.19 283.375 2001.98 283.375C1991.28 283.375 1981.88 285.969 1973.45 291.156C1965.02 296.343 1958.86 303.476 1954.32 312.554C1949.78 321.632 1947.51 332.006 1947.51 343.678C1947.51 355.674 1949.78 366.373 1954.32 375.775C1958.86 385.177 1965.02 392.309 1973.45 397.497C1981.88 402.684 1991.28 405.278 2001.98 405.278C2018.19 405.278 2031.48 399.766 2041.53 388.419ZM2118.27 299.91C2124.76 287.265 2134.16 277.539 2146.16 270.406C2157.83 263.274 2171.44 259.707 2187.01 259.707C2201.92 259.707 2215.54 262.95 2227.21 269.11C2238.88 275.594 2247.96 284.672 2254.77 296.343C2261.25 308.339 2264.82 322.28 2265.47 338.166C2265.47 340.76 2265.14 344.326 2264.82 349.514H2136.43V351.783C2136.75 367.994 2141.62 380.962 2151.34 390.688C2160.75 400.415 2173.07 405.278 2188.63 405.278C2200.3 405.278 2210.35 402.36 2218.78 396.524C2227.21 390.688 2232.72 382.259 2235.64 371.56H2262.55C2259.31 388.419 2251.2 402.36 2238.23 413.059C2225.26 423.758 2209.38 428.945 2190.57 428.945C2174.04 428.945 2159.77 425.703 2147.45 418.571C2135.13 411.438 2125.41 401.712 2118.6 388.743C2111.79 375.775 2108.55 361.185 2108.55 344.326C2108.55 327.467 2111.79 312.878 2118.27 299.91ZM2237.91 327.467C2236.61 313.526 2231.1 302.503 2222.02 294.722C2212.94 286.941 2201.27 283.051 2187.33 283.051C2174.69 283.051 2163.66 287.265 2154.26 295.371C2144.53 303.8 2139.35 314.499 2138.05 327.467H2237.91ZM2379.77 261.653V287.59H2366.48C2350.59 287.59 2339.25 293.101 2332.44 303.476C2325.63 314.175 2322.39 327.143 2322.39 342.705V427H2295.8V261.653H2318.82L2322.39 286.617C2326.93 279.16 2333.09 273 2340.87 268.461C2348.32 263.922 2358.7 261.653 2372.32 261.653H2379.77ZM1034.34 524.053C1049.25 524.053 1062.22 526.971 1073.89 532.806C1085.24 538.642 1093.99 546.747 1100.15 557.122C1106.31 567.497 1109.56 579.817 1109.56 593.758C1109.56 608.023 1106.31 620.343 1100.15 630.718C1093.67 641.417 1084.92 649.522 1073.57 655.358C1062.22 661.194 1049.25 663.787 1034.34 663.787H975.334V751H947.128V524.053H1034.34ZM975.334 637.851H1031.75C1046.66 637.851 1058.33 633.96 1067.41 625.855C1076.16 618.074 1080.7 607.375 1080.7 593.758C1080.7 580.465 1076.16 569.766 1067.41 561.985C1058.66 554.204 1046.98 549.99 1032.07 549.99H975.334V637.851ZM1160.58 742.246C1148.26 735.114 1138.54 725.387 1131.73 712.419C1124.59 699.775 1121.35 685.185 1121.35 668.326C1121.35 651.792 1124.59 637.202 1131.73 624.234C1138.54 611.59 1148.26 601.539 1160.58 594.406C1172.9 587.274 1187.17 583.707 1203.38 583.707C1219.26 583.707 1233.53 587.274 1245.85 594.406C1258.17 601.539 1267.9 611.59 1275.03 624.234C1281.84 637.202 1285.4 651.792 1285.4 668.326C1285.4 685.185 1281.84 699.775 1275.03 712.419C1267.9 725.387 1258.17 735.114 1245.85 742.246C1233.53 749.379 1219.26 752.945 1203.38 752.945C1187.17 752.945 1172.9 749.379 1160.58 742.246ZM1231.91 721.497C1240.34 716.309 1246.82 709.177 1251.36 699.775C1255.9 690.697 1258.17 679.998 1258.17 668.326C1258.17 656.655 1255.9 646.28 1251.36 636.878C1246.82 627.8 1240.34 620.343 1231.91 615.156C1223.48 609.969 1214.08 607.375 1203.38 607.375C1192.35 607.375 1182.95 609.969 1174.52 615.156C1166.09 620.343 1159.93 627.8 1155.39 636.878C1150.86 646.28 1148.59 656.655 1148.59 668.326C1148.59 679.998 1150.86 690.697 1155.39 699.775C1159.93 709.177 1166.09 716.309 1174.52 721.497C1182.95 726.684 1192.35 729.278 1203.38 729.278C1214.08 729.278 1223.48 726.684 1231.91 721.497ZM1399.86 585.653V611.59H1386.57C1370.68 611.59 1359.33 617.101 1352.52 627.476C1345.72 638.175 1342.47 651.143 1342.47 666.705V751H1315.89V585.653H1338.91L1342.47 610.617C1347.01 603.16 1353.17 597 1360.95 592.461C1368.41 587.922 1378.79 585.653 1392.4 585.653H1399.86ZM1424.17 539.291H1450.76V585.653H1492.58V609.969H1450.76V707.556C1450.76 714.688 1452.05 719.552 1454.65 722.469C1457.24 725.387 1462.1 726.684 1468.91 726.684H1497.77V751H1467.29C1451.73 751 1440.38 747.758 1433.9 740.625C1427.41 733.817 1424.17 722.794 1424.17 707.88V539.291ZM1668.74 726.684V751H1654.15C1643.45 751 1635.99 749.055 1631.45 744.516C1626.91 740.301 1624.32 733.817 1624.32 725.387C1611.35 743.867 1592.87 752.945 1568.88 752.945C1550.4 752.945 1535.49 748.731 1524.46 739.977C1513.44 731.547 1507.93 719.552 1507.93 704.638C1507.93 688.103 1513.44 675.459 1524.79 666.381C1536.13 657.627 1552.67 653.088 1574.39 653.088H1623.02V641.741C1623.02 631.042 1619.13 622.613 1612 616.453C1604.87 610.617 1594.82 607.375 1581.85 607.375C1570.18 607.375 1560.77 609.969 1553.32 615.156C1545.86 620.343 1541.32 626.827 1539.7 635.257H1513.12C1515.06 619.046 1522.19 606.402 1534.51 597.324C1546.83 588.246 1563.04 583.707 1583.14 583.707C1604.22 583.707 1620.43 588.895 1632.1 599.27C1643.77 609.644 1649.61 624.234 1649.61 643.362V714.688C1649.61 722.794 1653.17 726.684 1660.63 726.684H1668.74ZM1623.02 675.459H1571.8C1547.16 675.459 1534.84 684.861 1534.84 703.017C1534.84 711.446 1538.08 717.931 1544.56 722.794C1551.05 727.981 1559.8 730.251 1570.82 730.251C1587.04 730.251 1599.68 726.036 1609.08 717.606C1618.16 709.177 1623.02 697.83 1623.02 683.564V675.459ZM1689.17 524.053H1715.76V751H1689.17V524.053Z" fill="white"/>
</svg>
