<svg width="9" height="5" viewBox="0 0 9 5" fill="none" xmlns="http://www.w3.org/2000/svg">
<path d="M0.255 4.65V0.35H1.59V0.965H0.92V4.035H1.59V4.65H0.255ZM8.62645 0.35V4.65H7.29145V4.035H7.96145V0.965H7.29145V0.35H8.62645Z" fill="#BFBFF9"/>
<path d="M4.34539 3.405H4.42539V4H4.06539C3.70039 4 3.58539 3.825 3.59039 3.58C3.41039 3.865 3.15039 4.03 2.75039 4.03C2.19539 4.03 1.79539 3.765 1.79539 3.275C1.79539 2.73 2.20539 2.42 2.97539 2.42H3.48539V2.295C3.48539 2.065 3.32039 1.915 3.02539 1.915C2.75039 1.915 2.56539 2.04 2.53539 2.23H1.85539C1.90539 1.73 2.36539 1.4 3.04539 1.4C3.76539 1.4 4.18039 1.72 4.18039 2.335V3.245C4.18039 3.38 4.23539 3.405 4.34539 3.405ZM3.48539 2.94V2.89H2.97039C2.67539 2.89 2.50539 3.01 2.50539 3.225C2.50539 3.405 2.65039 3.52 2.88539 3.52C3.25539 3.52 3.48039 3.29 3.48539 2.94ZM4.69813 4V0.5H5.40313V2.52L6.40813 1.43H7.20313L6.27813 2.44L7.25313 4H6.43813L5.78813 2.96L5.40313 3.375V4H4.69813Z" fill="#2D2DF1"/>
</svg>
