<?xml version="1.0" encoding="UTF-8"?>
<svg width="100pt" height="100pt" version="1.1" viewBox="0 0 100 100" xmlns="http://www.w3.org/2000/svg">
 <g>
  <path d="m44.219 58.172c-1.6875-1.7148-6.2773-6.3672-7.9062-8 0 0-28.312 28.656-28.312 28.656-6.582 7.0547 3.2344 17.141 10.344 10.438l28.312-28.641c-0.53125-0.54297-1.9219-1.9375-2.4375-2.4531z"/>
  <path d="m93.797 32.922-5.3438-5.3906c-0.16797-0.22266-0.41797-0.38281-0.70312-0.4375-1.4531-0.375-3.7344-1.1719-4.3594-1.8125-0.84375-0.85938-1.2344-2.1562-1.4062-3.1094-0.32812-1.7188-1.1094-3.2812-2.2812-4.5-4.3125-4.5312-15.844-14.141-29.469-5.8594-0.96094 0.53906-0.59375 2.0938 0.5 2.1719 3.8242 0.40234 16.648 2.6484 14.688 10.016 0 0-25.844 26.141-25.844 26.141 1.9023 1.8594 5.1836 5.2891 7.0938 7.1719 0 0 25.641-25.938 25.641-25.938 0.78125 0.125 2.3906 0.57812 3.75 1.9531 0.54688 0.5625 1.25 2.6406 1.5625 3.9375 0.042969 0.29297 0.23438 0.55078 0.4375 0.75 0 0 5.3281 5.4062 5.3281 5.4062 0.4375 0.44922 1.2383 0.45703 1.6719 0 0 0 8.7344-8.8438 8.7344-8.8438 0.45312-0.46875 0.45312-1.2031 0-1.6562z"/>
 </g>
</svg>
