<?xml version="1.0" encoding="UTF-8"?>
<svg width="100pt" height="100pt" version="1.1" viewBox="0 0 100 100" xmlns="http://www.w3.org/2000/svg">
 <path d="m99.898 75.84c0.003906 2.9414-1.3125 5.7344-3.5859 7.6094-2.2734 1.8711-5.2656 2.6289-8.1562 2.0664s-5.375-2.3906-6.7812-4.9766c-1.4023-2.5898-1.5742-5.6719-0.46875-8.4023l-28.199-16.285c-1.9062 2.3906-4.6797 3.9336-7.7188 4.293v20.238c5.1328 0.71484 8.832 5.2812 8.4727 10.449-0.36328 5.168-4.6602 9.1758-9.8398 9.1758-5.1797 0-9.4766-4.0078-9.8359-9.1758s3.3398-9.7344 8.4688-10.449v-20.234c-1.7734-0.20703-3.4805-0.82422-4.9766-1.8008l-9.3008 11.172c3.4844 3.8398 3.4062 9.7227-0.18359 13.465-3.5859 3.7461-9.4609 4.0742-13.445 0.75391-3.9844-3.3203-4.7188-9.1562-1.6836-13.359 3.0352-4.207 8.8086-5.3438 13.211-2.6094l9.3008-11.176v0.003906c-1.6406-1.7266-2.7109-3.9141-3.0703-6.2695l-12.383 0.039063v0.003906c-0.70312 5.125-5.2539 8.8359-10.418 8.4922-5.1641-0.34766-9.1797-4.6289-9.1953-9.8047-0.015625-5.1719 3.9766-9.4766 9.1406-9.8516 5.1602-0.375 9.7305 3.3047 10.465 8.4297l12.305-0.039063v-0.003906c0.47656-5.5039 4.75-9.9141 10.234-10.574v-17.398c-5.1289-0.71875-8.8281-5.2812-8.4688-10.445 0.36328-5.1641 4.6562-9.1719 9.832-9.1719 5.1797 0 9.4727 4.0078 9.832 9.1719 0.36328 5.1641-3.3359 9.7266-8.4648 10.445v17.398c1.9219 0.23047 3.7578 0.93359 5.3359 2.0508l17.336-19.301c-2.4688-2.9297-3.0117-7.0273-1.3984-10.5 1.6172-3.4766 5.1016-5.6992 8.9336-5.6992 3.125-0.003906 6.0703 1.4766 7.9297 3.9883 1.8633 2.5117 2.4219 5.7578 1.5117 8.7461-0.91406 2.9922-3.1875 5.3711-6.1367 6.418-2.9453 1.043-6.2109 0.62891-8.8047-1.1172l-17.336 19.293c3.0703 3.4766 3.7773 8.4453 1.8008 12.637l28.125 16.238c2.5859-3.3164 6.9961-4.625 10.973-3.2539 3.9766 1.3672 6.6484 5.1133 6.6445 9.3203z"/>
</svg>
