<?xml version="1.0" encoding="UTF-8"?>
<svg width="100pt" height="100pt" version="1.1" viewBox="0 0 100 100" xmlns="http://www.w3.org/2000/svg">
 <g>
  <path d="m63.699 63.699c1.1016-2.6016 1.6992-5.3984 1.6992-8.1992 0-1.8008-0.19922-3.6992-0.69922-5.5-0.30078-1.1992-0.80078-2.3984-1.3008-3.6016-1-2-2.3008-4-4-5.6016-1.6992-1.6016-3.6016-3-5.6016-4l-3 3c-1.6992 1.6992-2.3008 4.1992-1.8008 6.3984 1.1016 0.5 2.1016 1.1992 3 2.1016 0.89844 0.89844 1.6016 1.8984 2.1016 3 0.5 1.1992 0.80078 2.3984 0.89844 3.6992 0.19922 2.8984-0.80078 5.8008-3 8l-21.395 21.004c-2 2-4.6992 3-7.3008 3-2.6016 0-5.3008-1-7.3008-3-4-4-4-10.602 0-14.602l16.5-16.496c-1.6016-4.3984-1.8984-9.1992-0.80078-13.801-0.69922 0.5-1.3008 1.1016-2 1.6992l-21.098 21.098c-4.1016 4.1016-6.1016 9.3984-6.1016 14.801 0 5.3008 2 10.699 6.1016 14.699 8.1016 8.1016 21.301 8.1016 29.5 0l21.199-21.199c0.60156-0.60156 1.1992-1.3008 1.6992-2 1.1016-1.4023 2-2.8984 2.6992-4.5z"/>
  <path d="m97.5 23.301c0-5.3008-2-10.699-6.1016-14.699-8.1016-8.1016-21.301-8.1016-29.5 0l-21.199 21.199c-0.60156 0.60156-1.1992 1.3008-1.6992 2-1.1016 1.3984-2 2.8984-2.6992 4.5-1.1016 2.6016-1.6992 5.3984-1.6992 8.1992 0 1.8008 0.19922 3.6992 0.69922 5.5 0.30078 1.1992 0.80078 2.3984 1.3008 3.6016 1 2 2.3008 4 4 5.6016 1.6992 1.6992 3.6016 3 5.6016 4l3-3c1.6992-1.6992 2.3008-4.1992 1.8008-6.3984-1.1016-0.5-2.1016-1.1992-3-2.1016-0.89844-0.89844-1.6016-1.8984-2.1016-3-0.5-1.1992-0.80078-2.3984-0.89844-3.6992-0.19922-2.8984 0.80078-5.8008 3-8l21.398-21c2-2 4.6992-3 7.3008-3s5.3008 1 7.3008 3c4 4 4 10.602 0 14.602l-16.605 16.594c1.6016 4.3984 1.8984 9.1992 0.80078 13.801 0.69922-0.5 1.3008-1.1016 2-1.6992l21.199-21.199c4.1016-4.1016 6.1016-9.4023 6.1016-14.801z"/>
 </g>
</svg>
