<?xml version="1.0" encoding="UTF-8"?>
<svg width="100pt" height="100pt" version="1.1" viewBox="0 0 100 100" xmlns="http://www.w3.org/2000/svg">
 <path d="m59.141 30.297c-0.82812 0-1.5-0.67188-1.5-1.5s0.67188-1.5 1.5-1.5h18.641c0.82812 0 1.5 0.67188 1.5 1.5s-0.67188 1.5-1.5 1.5zm0 34.078c-0.82812 0-1.5-0.67188-1.5-1.5s0.67188-1.5 1.5-1.5h18.641c0.82812 0 1.5 0.67188 1.5 1.5s-0.67188 1.5-1.5 1.5zm0-6.8164c-0.82812 0-1.5-0.67188-1.5-1.5s0.67188-1.5 1.5-1.5h18.641c0.82812 0 1.5 0.67188 1.5 1.5s-0.67188 1.5-1.5 1.5zm0-6.8164c-0.82812 0-1.5-0.67188-1.5-1.5 0-0.82813 0.67188-1.5 1.5-1.5h18.641c0.82812 0 1.5 0.67187 1.5 1.5 0 0.82812-0.67188 1.5-1.5 1.5zm0-6.8164c-0.82812 0-1.5-0.67188-1.5-1.5s0.67188-1.5 1.5-1.5h18.641c0.82812 0 1.5 0.67188 1.5 1.5s-0.67188 1.5-1.5 1.5zm0-6.8164c-0.82812 0-1.5-0.67188-1.5-1.5s0.67188-1.5 1.5-1.5h18.641c0.82812 0 1.5 0.67188 1.5 1.5s-0.67188 1.5-1.5 1.5zm-36.918-6.8164c-0.82812 0-1.5-0.67188-1.5-1.5s0.67188-1.5 1.5-1.5h18.641c0.82812 0 1.5 0.67188 1.5 1.5s-0.67188 1.5-1.5 1.5zm0 34.078c-0.82812 0-1.5-0.67188-1.5-1.5s0.67188-1.5 1.5-1.5h18.641c0.82812 0 1.5 0.67188 1.5 1.5s-0.67188 1.5-1.5 1.5zm0-6.8164c-0.82812 0-1.5-0.67188-1.5-1.5 0-0.82813 0.67188-1.5 1.5-1.5h18.641c0.82812 0 1.5 0.67187 1.5 1.5 0 0.82812-0.67188 1.5-1.5 1.5zm0-6.8164c-0.82812 0-1.5-0.67188-1.5-1.5s0.67188-1.5 1.5-1.5h18.641c0.82812 0 1.5 0.67188 1.5 1.5s-0.67188 1.5-1.5 1.5zm0-6.8164c-0.82812 0-1.5-0.67188-1.5-1.5s0.67188-1.5 1.5-1.5h18.641c0.82812 0 1.5 0.67188 1.5 1.5s-0.67188 1.5-1.5 1.5zm0-6.8164c-0.82812 0-1.5-0.67188-1.5-1.5s0.67188-1.5 1.5-1.5h18.641c0.82812 0 1.5 0.67188 1.5 1.5s-0.67188 1.5-1.5 1.5zm66.195-13.914v49.191c0 0.82813-0.67188 1.5-1.5 1.5h-28.883c-1.7656 0-3.3711 0.70703-4.5859 1.8828-0.87891 0.87891-1.4922 1.9531-1.7773 3.1484h40.145c0.41406 0 0.79688-0.17187 1.0664-0.44531 0.27344-0.27344 0.44531-0.65234 0.44531-1.0664v-49.305l-4.9141-4.9141zm-36.918 4.418v45.887c1.7109-1.6172 4.0156-2.6094 6.5352-2.6094h27.383v-49.816h-27.375c-1.7969 0-3.4336 0.73438-4.6172 1.9219-1.1836 1.1836-1.9219 2.8242-1.9219 4.6172zm-39.918-4.418-4.9141 4.9141v49.305c0 0.41797 0.16797 0.79688 0.4375 1.0664 0.27734 0.27734 0.65234 0.44531 1.0703 0.44531h40.145c-0.28516-1.1953-0.89844-2.2695-1.7773-3.1523-1.2109-1.1797-2.8164-1.8828-4.582-1.8828h-28.883c-0.82812 0-1.5-0.67188-1.5-1.5v-49.191zm30.383-2.1211h-27.383v49.812h27.383c2.5195 0 4.8242 0.99219 6.5352 2.6133v-45.887c0-1.7656-0.70703-3.3711-1.8828-4.582-1.2227-1.2188-2.8555-1.957-4.6523-1.957z"/>
</svg>
